<?xml version="1.0" encoding="UTF-8" standalone="no"?>
<!-- Created with Inkscape (http://www.inkscape.org/) -->

<svg
   xmlns:dc="http://purl.org/dc/elements/1.1/"
   xmlns:cc="http://creativecommons.org/ns#"
   xmlns:rdf="http://www.w3.org/1999/02/22-rdf-syntax-ns#"
   xmlns:svg="http://www.w3.org/2000/svg"
   xmlns="http://www.w3.org/2000/svg"
   xmlns:sodipodi="http://sodipodi.sourceforge.net/DTD/sodipodi-0.dtd"
   xmlns:inkscape="http://www.inkscape.org/namespaces/inkscape"
   width="102.98378mm"
   height="52.344414mm"
   viewBox="0 0 102.98378 52.344414"
   version="1.1"
   id="svg8"
   inkscape:version="0.92.4 (5da689c313, 2019-01-14)"
   sodipodi:docname="Violin4Dummies.svg">
  <defs
     id="defs2" />
  <sodipodi:namedview
     id="base"
     pagecolor="#ffffff"
     bordercolor="#666666"
     borderopacity="1.0"
     inkscape:pageopacity="0.0"
     inkscape:pageshadow="2"
     inkscape:zoom="0.7"
     inkscape:cx="-119.4073"
     inkscape:cy="-44.471995"
     inkscape:document-units="mm"
     inkscape:current-layer="layer1"
     showgrid="false"
     inkscape:window-width="2400"
     inkscape:window-height="1256"
     inkscape:window-x="2869"
     inkscape:window-y="123"
     inkscape:window-maximized="1"
     fit-margin-top="0.1"
     fit-margin-left="0.1"
     fit-margin-right="0.1"
     fit-margin-bottom="0.1" />
  <metadata
     id="metadata5">
    <rdf:RDF>
      <cc:Work
         rdf:about="">
        <dc:format>image/svg+xml</dc:format>
        <dc:type
           rdf:resource="http://purl.org/dc/dcmitype/StillImage" />
        <dc:title></dc:title>
      </cc:Work>
    </rdf:RDF>
  </metadata>
  <g
     inkscape:label="Layer 1"
     inkscape:groupmode="layer"
     id="layer1"
     transform="translate(-36.737967,-75.310869)">
    <flowRoot
       xml:space="preserve"
       id="flowRoot4526"
       style="font-style:normal;font-weight:normal;font-size:96px;line-height:1.25;font-family:sans-serif;letter-spacing:0px;word-spacing:0px;fill:#000000;fill-opacity:1;stroke:none"
       transform="matrix(0.26458333,0,0,0.26458333,-8.6934525,-5.2916667)"><flowRegion
         id="flowRegion4528"><rect
           id="rect4530"
           width="1038.5714"
           height="351.42856"
           x="-81.428574"
           y="366.80539" /></flowRegion><flowPara
         style="font-style:normal;font-variant:normal;font-weight:normal;font-stretch:normal;font-size:96px;line-height:26.45669556px;font-family:Yellowtail;-inkscape-font-specification:Yellowtail;text-align:center;letter-spacing:0px;direction:ltr;text-anchor:middle"
         id="flowPara4552" /></flowRoot>    <flowRoot
       xml:space="preserve"
       id="flowRoot4538"
       style="font-style:normal;font-weight:normal;font-size:96px;line-height:1.25;font-family:sans-serif;letter-spacing:0px;word-spacing:0px;fill:#000000;fill-opacity:1;stroke:none"><flowRegion
         id="flowRegion4540"><rect
           id="rect4542"
           width="562.85712"
           height="424.28571"
           x="-171.42857"
           y="349.66254" /></flowRegion><flowPara
         id="flowPara4544" /></flowRoot>    <flowRoot
       xml:space="preserve"
       id="flowRoot4560"
       style="font-style:normal;font-weight:normal;font-size:96px;line-height:1.25;font-family:sans-serif;letter-spacing:0px;word-spacing:0px;fill:#000000;fill-opacity:1;stroke:none"
       transform="matrix(0.26458333,0,0,0.26458333,102.80952,59.342262)"><flowRegion
         id="flowRegion4562"><rect
           id="rect4564"
           width="762.85712"
           height="591.42859"
           x="18.571428"
           y="183.94826" /></flowRegion><flowPara
         id="flowPara4566"
         style="font-style:normal;font-variant:normal;font-weight:normal;font-stretch:normal;font-size:64px;font-family:Yellowtail;-inkscape-font-specification:Yellowtail" /></flowRoot>    <g
       id="g4570"
       transform="matrix(0.06909438,0.01525581,-0.01768722,0.08010635,41.105316,64.650054)"
       style="fill:#c3001f;fill-opacity:1">
      <path
         id="path4568"
         d="m 442.45,102.41 c 0,0 32.793,12.558 30.765,25.797 -0.70143,4.5786 -8.7348,3.1603 -12.823,5.3324 -3.0018,1.5946 -6.2937,3.0372 -8.5161,5.6105 -3.1861,3.6891 -5.9136,8.3861 -6.1845,13.254 -0.22637,4.0667 -0.59531,9.68 0.18185,13.207 0.98905,4.4889 4.5808,9.9455 7.5701,13.435 3.5465,4.1395 9.7945,8.3534 14.595,10.933 5.4908,2.9505 13.044,2.7554 19.243,3.4075 6.4112,0.67452 12.511,-1.5266 18.546,-3.7972 7.1081,-2.6739 14.496,-6.3793 19.106,-12.419 3.602,-4.7192 4.7203,-11.071 5.4275,-16.966 0.92546,-7.715 0.0339,-15.666 -1.6505,-23.251 -1.6654,-7.4984 -3.8346,-15.231 -8.2515,-21.512 -4.8656,-6.919 -12.035,-12.102 -19.22,-16.56 -7.0196,-4.3545 -14.853,-7.4933 -22.831,-9.6334 -7.978,-2.1401 -16.328,-2.9715 -24.587,-3.0866 -9.6425,-0.13437 -19.4,0.62375 -28.796,2.8021 -9.4598,2.1932 -18.642,5.7882 -27.282,10.226 -8.0073,4.1129 -15.772,8.9811 -22.437,15.035 -9.635,8.7502 -17.477,19.409 -24.753,30.203 -5.3598,7.9512 -9.7976,16.529 -13.785,25.251 -6.1338,13.418 -11.959,27.135 -15.503,41.457 -5.5446,22.41 -6.3824,45.738 -8.7879,68.698 -3.1112,29.695 -7.2964,89.274 -7.2964,89.274 l -17.35,5.8725 13.838,7.2209 c 0,0 -2.2283,49.696 -3.3451,74.544 -0.99993,22.247 0.20832,44.703 -3.0045,66.74 -2.3228,15.932 -4.393,32.154 -8.4248,47.742 -4.2835,16.561 -11.699,33.421 -19.333,49.202 -5.3286,11.014 -12.291,21.363 -20.446,30.481 -8.2505,9.2246 -17.618,17.806 -28.342,23.977 -8.6192,4.9599 -18.523,7.3353 -28.099,10.007 -4.255,1.1869 -12.982,2.658 -12.982,2.658 0,0 -18.705,-20.504 -19.955,-33.424 -0.3274,-3.3846 -0.58241,-7.63 1.8167,-10.039 4.8639,-4.8846 15.817,-2.1566 21.06,-6.6319 5.3121,-4.5348 8.2305,-11.613 10.174,-18.324 1.9257,-6.6505 2.4973,-13.94 1.1807,-20.737 -0.91463,-4.7208 -3.0853,-9.3394 -6.1394,-13.051 -3.4636,-4.2092 -8.3693,-7.1145 -13.179,-9.676 -5.9981,-3.1939 -12.449,-5.9843 -19.182,-6.9001 -5.9242,-0.80589 -12.194,-0.48809 -17.888,1.3421 -8.172,2.6269 -16.218,7.0465 -21.998,13.398 -6.001,6.594 -9.7589,15.351 -11.71,24.053 -2.0545,9.1606 -0.96439,18.864 0.33334,28.161 1.0847,7.7706 2.8744,15.596 6.1773,22.71 3.1204,6.7214 7.5017,12.942 12.619,18.298 5.6841,5.9494 12.654,10.61 19.659,14.923 8.8126,5.425 17.79,11.398 27.895,13.624 8.8948,1.959 18.296,0.68036 27.32,-0.5665 19.278,-2.6639 39.042,-9.1837 56.767,-17.23 12.211,-5.5426 25.236,-13.612 34.034,-20.696 7.5057,-6.0435 13.809,-11.837 20.045,-19.185 8.4938,-10.008 16.117,-21.163 22.74,-32.498 3.4928,-5.9776 6.199,-12.246 8.5387,-18.763 4.7756,-13.301 8.6123,-27.813 11.604,-41.625 3.1143,-14.377 4.406,-28.411 6.699,-42.941 3.1629,-20.043 5.2524,-40.268 6.5928,-60.514 0.71033,-10.73 0.7642,-32.252 0.7642,-32.252 l 15.276,-4.6744 -16.071,-8.6972 c 0,0 2.3944,-64.671 4.9648,-96.917 2.044,-25.642 5.5193,-51.149 8.3109,-76.721 1.6125,-14.771 1.6557,-29.802 4.8746,-44.308 2.8203,-12.71 7.1239,-25.152 12.551,-36.986 4.3984,-9.5915 9.2077,-19.261 16.078,-27.267 5.6648,-6.6014 12.634,-12.231 20.204,-16.511 3.8854,-2.1966 12.604,-4.514 12.604,-4.514 z"
         inkscape:connector-curvature="0"
         style="fill:#c3001f;fill-opacity:1;stroke:#000000" />
    </g>
    <text
       xml:space="preserve"
       style="font-style:normal;font-weight:normal;font-size:25.39999962px;line-height:1.25;font-family:sans-serif;letter-spacing:0px;word-spacing:0px;fill:#000000;fill-opacity:1;stroke:none;stroke-width:0.26458332"
       x="96.362373"
       y="94.026787"
       id="text934"><tspan
         sodipodi:role="line"
         id="tspan932"
         x="96.362373"
         y="94.026787"
         style="font-style:normal;font-variant:normal;font-weight:normal;font-stretch:normal;line-height:1.29999995;font-family:Yellowtail;-inkscape-font-specification:Yellowtail;text-align:center;text-anchor:middle;stroke-width:0.26458332">  Violin</tspan><tspan
         sodipodi:role="line"
         x="96.362373"
         y="127.04678"
         style="font-style:normal;font-variant:normal;font-weight:normal;font-stretch:normal;line-height:1.29999995;font-family:Yellowtail;-inkscape-font-specification:Yellowtail;text-align:center;text-anchor:middle;stroke-width:0.26458332"
         id="tspan936">Dummies</tspan></text>
    <text
       xml:space="preserve"
       style="font-style:normal;font-weight:normal;font-size:25.39999962px;line-height:1.25;font-family:sans-serif;letter-spacing:0px;word-spacing:0px;fill:#000000;fill-opacity:1;stroke:none;stroke-width:0.26458332"
       x="67.279762"
       y="106.65118"
       id="text940"><tspan
         sodipodi:role="line"
         id="tspan938"
         x="67.279762"
         y="106.65118"
         style="font-style:normal;font-variant:normal;font-weight:normal;font-stretch:normal;font-family:Yellowtail;-inkscape-font-specification:Yellowtail;fill:#c3001f;fill-opacity:1;stroke-width:0.26458332">or</tspan></text>
  </g>
</svg>
